<svg xmlns="http://www.w3.org/2000/svg" width="64.5561" height="16.115" viewBox="0 0 64.5561 16.115"><defs><style>.a{fill:#414141;}</style></defs><title>ayn_inactive</title><path class="a" d="M4.9879.2964l2.9889,9.276c.0386.1289-.5154.1289-.9019.1289s-.8631,0-.9019-.1289L5.5677,7.5756H2.334L1.7285,9.5724c-.0386.1289-.4766.1289-.8632.1289s-.9019,0-.8633-.1289L2.9138.2964c.0386-.1287.438-.1416,1.0178-.1416S4.9492.1676,4.9879.2964ZM5.13,6.081,3.9444,1.9583,2.772,6.081Z"/><path class="a" d="M10.6694,9.65A1.7884,1.7884,0,0,1,8.6468,7.7043V.129c0-.129.554-.129.8762-.129s.876,0,.876.129v7.382c0,.4123.1931.6055.67.6055h.2448c.2319,0,.2835.09.2835.76,0,.6828-.0516.773-.2835.773Z"/><path class="a" d="M14.4569,9.65a1.7885,1.7885,0,0,1-2.0227-1.9454V.129c0-.129.5542-.129.8762-.129s.876,0,.876.129v7.382c0,.4123.1933.6055.67.6055h.2449c.2317,0,.2834.09.2834.76,0,.6828-.0517.773-.2834.773Z"/><path class="a" d="M18.489,12.0717c-.0515.116-.49.1289-.876.1289s-.8889-.0129-.85-.1289l1.0049-2.6539L15.2038,2.7572c-.0515-.1159.3994-.1287.9664-.1287s.9018.0129.94.1287l1.6233,4.857,1.5332-4.857c.0386-.103.58-.1287.9018-.1287.3865,0,.9919.0129.94.1287Z"/><path class="a" d="M22.2512,7.15V5.1921c0-1.8165,1.3011-2.7313,3.1565-2.7313,1.8421,0,3.1692.9019,3.1692,2.7313V7.15c0,1.8293-1.43,2.7182-3.1692,2.7182C23.4623,9.8686,22.2512,8.9668,22.2512,7.15ZM25.4077,3.93c-1.0049,0-1.4043.4251-1.4043,1.2754v1.92c0,.85.3994,1.2627,1.4043,1.2627.9275,0,1.417-.4251,1.417-1.2627V5.205C26.8247,4.3548,26.3352,3.93,25.4077,3.93Z"/><path class="a" d="M30.3548,2.6156c.3221,0,.876,0,.876.1287V7.2406c0,.6441.2449,1.0564.8762,1.0564a2.1609,2.1609,0,0,0,1.6618-1.095V2.7443c0-.1287.5542-.1287.876-.1287s.8763,0,.8763.1287v6.828c0,.116-.5542.1289-.8763.1289s-.8245-.0129-.8245-.1289V8.8639a3.1024,3.1024,0,0,1-2.2931,1.0047,2.0147,2.0147,0,0,1-2.0484-2.2158V2.7443C29.4788,2.6156,30.0327,2.6156,30.3548,2.6156Z"/><path class="a" d="M42.1173,9.7013c-.3221,0-.876,0-.876-.1289V5.0891c0-.6443-.2449-1.0565-.876-1.0565a2.1442,2.1442,0,0,0-1.6619,1.108V9.5724c0,.1289-.5539.1289-.876.1289s-.876,0-.876-.1289V2.7443c0-.1159.5539-.1287.876-.1287s.8245.0129.8245.1287v.7344a3.09,3.09,0,0,1,2.293-1.0179,2.0149,2.0149,0,0,1,2.0484,2.2161V9.5724C42.9933,9.7013,42.4394,9.7013,42.1173,9.7013Z"/><path class="a" d="M45.9438,6.8154v.438c0,.773.438,1.2368,1.3655,1.2368a4.6669,4.6669,0,0,0,2.1128-.5926c.1416-.0774.76,1.1594.6314,1.2368a5.6273,5.6273,0,0,1-2.8858.7342,2.6414,2.6414,0,0,1-2.9116-2.731V5.3854a2.6791,2.6791,0,0,1,2.9116-2.9246,2.6454,2.6454,0,0,1,2.9759,2.9761V6.8154Zm2.525-1.6362a1.2769,1.2769,0,1,0-2.5508,0v.3736h2.5508Z"/><path class="a" d="M52.9007,6.8154v.438c0,.773.438,1.2368,1.3655,1.2368a4.6669,4.6669,0,0,0,2.1128-.5926c.1416-.0774.76,1.1594.6314,1.2368a5.6273,5.6273,0,0,1-2.8858.7342,2.6414,2.6414,0,0,1-2.9116-2.731V5.3854a2.679,2.679,0,0,1,2.9116-2.9246,2.6455,2.6455,0,0,1,2.9759,2.9761V6.8154Zm2.5251-1.6362a1.2769,1.2769,0,1,0-2.5508,0v.3736h2.5508Z"/><path class="a" d="M62.7437,3.1051V.129c0-.129.5539-.129.876-.129s.876,0,.876.129V9.5724c0,.1289-.5281.1289-.85.1289s-.7988,0-.7988-.1289v-.67a2.4474,2.4474,0,0,1-2.0355.9533A2.5316,2.5316,0,0,1,58.17,7.202V5.1149a2.5711,2.5711,0,0,1,2.8083-2.6541A2.4365,2.4365,0,0,1,62.7437,3.1051Zm0,3.4912V5.5658a1.4349,1.4349,0,0,0-1.5074-1.6233,1.2081,1.2081,0,0,0-1.314,1.3784V6.9184a1.22,1.22,0,0,0,1.3269,1.4043C62.267,8.3227,62.7437,7.5885,62.7437,6.5963Z"/><path class="a" d="M25.4359,16.115V11.8256H26.29l1.0153,3.0371q.14.4242.2048.6349.0731-.2341.2282-.6876l1.027-2.9844h.7637V16.115h-.5472v-3.59l-1.2464,3.59h-.512l-1.2406-3.6515V16.115Z"/><path class="a" d="M30.0339,16.115l1.6473-4.2894h.6115l1.7555,4.2894h-.6466l-.5-1.2991H31.1077l-.4711,1.2991Zm1.2377-1.7614h1.4542l-.4477-1.1879q-.2048-.5413-.3043-.8895a5.4709,5.4709,0,0,1-.2312.8193Z"/><path class="a" d="M34.57,16.115V11.8256h1.9018a2.531,2.531,0,0,1,.8719.1156.9545.9545,0,0,1,.4769.4082A1.22,1.22,0,0,1,38,12.996a1.079,1.079,0,0,1-.2954.77,1.4965,1.4965,0,0,1-.9129.3979,1.4743,1.4743,0,0,1,.3423.2136,2.9593,2.9593,0,0,1,.4711.5706l.746,1.1674h-.7138l-.5676-.8924q-.2488-.3862-.41-.591a1.29,1.29,0,0,0-.2882-.2867.8547.8547,0,0,0-.2589-.1141,1.71,1.71,0,0,0-.316-.02h-.6583V16.115Zm.5676-2.3963h1.22a1.8293,1.8293,0,0,0,.6086-.08.6476.6476,0,0,0,.3336-.2575.6965.6965,0,0,0,.1141-.3848.6393.6393,0,0,0-.2209-.5,1.0345,1.0345,0,0,0-.6978-.196H35.1381Z"/><path class="a" d="M38.9257,16.115V11.8256h.5676v2.1271l2.13-2.1271h.77l-1.7994,1.738,1.8784,2.5514h-.749l-1.5273-2.171-.7022.6847V16.115Z"/><path class="a" d="M44.0971,16.115V12.3318H42.6839v-.5062h3.4v.5062H44.6647V16.115Z"/><path class="a" d="M46.726,16.115V11.8256h1.618a3.9,3.9,0,0,1,.6525.041,1.2929,1.2929,0,0,1,.53.2,1.0518,1.0518,0,0,1,.3438.414,1.3961,1.3961,0,0,1-.218,1.5112,1.67,1.67,0,0,1-1.2581.3789h-1.1V16.115Zm.5676-2.25h1.1089a1.1762,1.1762,0,0,0,.7812-.2048.73.73,0,0,0,.2312-.5764.7752.7752,0,0,0-.1361-.4608A.6364.6364,0,0,0,48.92,12.37a2.4287,2.4287,0,0,0-.53-.038H47.2936Z"/><path class="a" d="M50.7594,16.115V11.8256h.5676v3.7832h2.1125v.5062Z"/><path class="a" d="M53.7041,16.115l1.6473-4.2894h.6115l1.7555,4.2894h-.6466l-.5-1.2991H54.7779l-.4711,1.2991Zm1.2377-1.7614h1.4542l-.4477-1.1879q-.2048-.5413-.3043-.8895a5.4588,5.4588,0,0,1-.2312.8193Z"/><path class="a" d="M58.8786,16.115V12.3318H57.4654v-.5062h3.4v.5062H59.4462V16.115Z"/><path class="a" d="M61.165,16.115v-.5267l2.1974-2.7474q.2341-.2925.4447-.5091H61.4137v-.5062h3.0722v.5062l-2.408,2.9756-.26.3014h2.7386v.5062Z"/></svg>