<svg xmlns="http://www.w3.org/2000/svg" width="11.7155" height="3.4643" viewBox="0 0 11.7155 3.4643"><defs><style>.a{fill:#bf0000;}</style></defs><title>rakuten</title><path class="a" d="M0,.1588.0356.1571c.236,0,.472-.0007.708,0a.82.82,0,0,1,.8176.6634.8028.8028,0,0,1-.2918.8077c-.0113.01-.0232.0186-.0387.031l.6723.8938-.0362.002c-.1669,0-.3339,0-.5008.0006a.06.06,0,0,1-.0538-.0281c-.1715-.23-.3442-.4583-.5156-.6879a.0591.0591,0,0,0-.054-.0277c-.0953.0014-.1906.0006-.29.0006v.74H0Zm.4523.46V.8991q0,.2125,0,.4249c0,.0148-.006.0343.021.0338.1093-.002.2193.004.3277-.0069a.3675.3675,0,0,0,.3228-.357A.3637.3637,0,0,0,.8165.6209,3.194,3.194,0,0,0,.4523.6183Z"/><path class="a" d="M3.43,2.5529H2.9974V2.4741c-.0134.0067-.0226.01-.0307.0156A.7622.7622,0,0,1,2.03,2.3789a1.0312,1.0312,0,0,1-.3128-.6728,1.0832,1.0832,0,0,1,.19-.7494A.8036.8036,0,0,1,2.6443.5912.673.673,0,0,1,2.9462.69L2.9952.72V.6379H3.43Zm-.4261-.9306A.6905.6905,0,0,0,2.9009,1.23a.3693.3693,0,0,0-.6264-.0119.6041.6041,0,0,0-.1111.3112.6419.6419,0,0,0,.112.4453.3687.3687,0,0,0,.6225-.0085A.6343.6343,0,0,0,3.0037,1.6222Z"/><path class="a" d="M4.1394,1.2956q.0668-.0851.1336-.17c.1213-.155.2423-.31.3645-.4646A.0633.0633,0,0,1,4.6782.6363c.19-.0016.38-.001.57-.0009l.0165.0032-.7461.8974.8645,1.0157c-.0165.001-.0272.0021-.0379.0021-.18,0-.3593,0-.5389.0006A.06.06,0,0,1,4.7542,2.53q-.2938-.362-.5892-.7228l-.0326-.0387v.7832h-.444V0H4.13V1.2916Z"/><path class="a" d="M9.9533,1.7311H8.7a.522.522,0,0,0,.3081.4312.4458.4458,0,0,0,.5429-.2074l.3831.2206a.9156.9156,0,0,1-.6347.4182.8516.8516,0,0,1-.9-.4538A1.0649,1.0649,0,0,1,8.4464.9465a.8137.8137,0,0,1,1.3918.0652,1.0479,1.0479,0,0,1,.1249.6327C9.9607,1.6718,9.957,1.6991,9.9533,1.7311Zm-.458-.3843A.3838.3838,0,0,0,9.1028,1a.4048.4048,0,0,0-.3854.3465Z"/><path class="a" d="M9.3521,2.9173q-.1817.0153-.3634.0306-.2648.0226-.53.0455c-.1742.0148-.3485.029-.5227.0439q-.38.0323-.76.0651-.3561.03-.7123.06c-.2029.0173-.4057.0353-.6086.0525-.1742.0148-.3485.0289-.5227.0437q-.42.0357-.8393.0718c-.2386.02-.4772.04-.7157.06q-.3009.0256-.6017.0523c-.086.0075-.1719.0152-.2579.0215a.0484.0484,0,0,1-.0337-.0105c-.1822-.1775-.3636-.3558-.55-.5385H9.3519Z"/><path class="a" d="M10.5631.6352V.7021a.0939.0939,0,0,0,.0181-.0064.7281.7281,0,0,1,.98.2168.8607.8607,0,0,1,.1536.49c.0017.3719.0006.7439.0006,1.1158,0,.01,0,.02,0,.0332H11.281V2.5123c0-.3616.0007-.7232,0-1.0847a.3874.3874,0,0,0-.141-.3136.3476.3476,0,0,0-.5552.183.5209.5209,0,0,0-.0206.146c-.0017.3547-.0009.7093-.0009,1.064V2.551H10.129V2.5156q0-.9207-.0007-1.8413c0-.0323.0092-.04.04-.04.1186.0018.2372.0007.3558.0007Z"/><path class="a" d="M6.4951.6349h.25c.053,0,.106.0007.1589,0,.0191,0,.0283.0056.0266.0254-.0006.0069,0,.0138,0,.0207q0,.9137,0,1.8275v.044H6.4971L6.4931,2.49c-.01.0053-.0186.0088-.0259.0133a.7208.7208,0,0,1-.8517-.0907.8585.8585,0,0,1-.2723-.666q0-.5372,0-1.0744c0-.0271.0053-.0384.0357-.038.122.0017.2441.0007.3662.0008L5.78.6369V.6784q0,.5389,0,1.0778a.4092.4092,0,0,0,.0976.28.3457.3457,0,0,0,.5856-.1095.5057.5057,0,0,0,.031-.175c.0028-.357.0014-.7139.0014-1.0709Z"/><path class="a" d="M7.3213.6349V.16h.4339V.6337H8.127v.4544c-.0112.0006-.0233.0019-.0354.0019-.1013,0-.2026.0007-.3039,0-.0239,0-.0317.007-.0316.0314.0008.2659-.0006.5318.0011.7977a.2091.2091,0,0,0,.2409.2266.7059.7059,0,0,0,.1148-.0371l.2825.3753a.8252.8252,0,0,1-.2275.0933.6557.6557,0,0,1-.846-.6324c-.0025-.27-.0015-.541,0-.8115,0-.0356-.01-.0453-.0443-.0436-.0607.0029-.1217.0008-.185.0008a.2613.2613,0,0,1-.0034-.0286c0-.1312,0-.2625-.0007-.3937,0-.0254.0067-.0342.033-.0335C7.187.636,7.2522.6349,7.3213.6349Z"/></svg>