<svg xmlns="http://www.w3.org/2000/svg" width="87.0824" height="12.9908" viewBox="0 0 87.0824 12.9908"><defs><style>.a{fill:#e3000f;}</style></defs><title>kaufland</title><path class="a" d="M.5358.5358H12.4551V12.455H.5358ZM0,12.9908H12.9908V0H0Z"/><rect class="a" x="2.0419" y="2.043" width="4.141" height="4.141"/><polygon class="a" points="6.806 2.043 6.806 6.186 10.949 2.043 6.806 2.043"/><rect class="a" x="2.0419" y="6.8068" width="4.141" height="4.141"/><polygon class="a" points="6.806 6.804 6.806 10.948 10.949 10.948 6.806 6.804"/><polygon class="a" points="21.004 11.1 18.066 7.071 18.066 11.1 16.038 11.1 16.038 2.118 18.066 2.118 18.066 6.249 21.004 2.118 23.313 2.118 19.913 6.506 23.352 11.1 21.004 11.1"/><path class="a" d="M29.8829,5.12V11.1H28.1251v-.6287a2.5651,2.5651,0,0,1-1.8477.757,2.8738,2.8738,0,0,1-2.81-3.0922,2.9236,2.9236,0,0,1,2.81-3.1564,2.6664,2.6664,0,0,1,1.8477.77V5.12ZM28.1251,9.1749V7.045a1.6726,1.6726,0,0,0-1.27-.5646A1.5265,1.5265,0,0,0,25.2894,8.11a1.5335,1.5335,0,0,0,1.5654,1.63,1.6729,1.6729,0,0,0,1.27-.5645"/><path class="a" d="M37.3247,5.12V11.1H35.5669v-.7057a2.5718,2.5718,0,0,1-1.9118.834,2.1939,2.1939,0,0,1-2.2967-2.4122V5.12h1.7835V8.4692a1.1049,1.1049,0,0,0,1.1547,1.2446,1.6044,1.6044,0,0,0,1.27-.6672V5.12Z"/><path class="a" d="M41.2123,4.5815V5.12h2.0144V6.57H41.2123V11.1H39.4031V6.57h-.8725V5.12h.8725V4.4147A2.1977,2.1977,0,0,1,41.79,1.99a2.8035,2.8035,0,0,1,1.6166.3721L43.1241,3.709a1.67,1.67,0,0,0-.9367-.2566c-.6287,0-.9751.372-.9751,1.1291M46.2548,11.1H44.4585V2.118h1.7963Z"/><path class="a" d="M53.9917,5.12V11.1H52.2339v-.6287a2.5648,2.5648,0,0,1-1.8476.757,2.8739,2.8739,0,0,1-2.81-3.0922,2.9237,2.9237,0,0,1,2.81-3.1564,2.6661,2.6661,0,0,1,1.8476.77V5.12ZM52.2339,9.1749V7.045a1.6725,1.6725,0,0,0-1.27-.5646A1.5265,1.5265,0,0,0,49.3983,8.11a1.5334,1.5334,0,0,0,1.5654,1.63,1.6728,1.6728,0,0,0,1.27-.5645"/><path class="a" d="M61.4592,7.4042V11.1H59.6886V7.7507a1.1111,1.1111,0,0,0-1.1548-1.2446,1.604,1.604,0,0,0-1.27.6672V11.1H55.5057V5.12h1.7579v.6928a2.5834,2.5834,0,0,1,1.8989-.8212,2.1874,2.1874,0,0,1,2.2967,2.4122"/><path class="a" d="M69.1449,2.1179V11.1H67.3871v-.6672a2.6053,2.6053,0,0,1-1.8989.7955,2.8745,2.8745,0,0,1-2.81-3.0922,2.9045,2.9045,0,0,1,2.81-3.1436,2.6053,2.6053,0,0,1,1.8989.7956v-3.67ZM67.3871,9.1236V7.0963A1.6632,1.6632,0,0,0,66.0655,6.48,1.5264,1.5264,0,0,0,64.5,8.11a1.5264,1.5264,0,0,0,1.5653,1.63,1.6635,1.6635,0,0,0,1.3216-.6158"/><path class="a" d="M70.4536,10.2912a.9333.9333,0,0,1,.9752-.9623.8963.8963,0,0,1,.9751.9494.9058.9058,0,0,1-.9623.95.9238.9238,0,0,1-.988-.9366"/><path class="a" d="M79.6919,2.1179V11.1H77.9341v-.6672a2.6053,2.6053,0,0,1-1.8989.7955,2.8745,2.8745,0,0,1-2.81-3.0922,2.9045,2.9045,0,0,1,2.81-3.1436,2.6053,2.6053,0,0,1,1.8989.7956v-3.67ZM77.9341,9.1236V7.0963A1.6632,1.6632,0,0,0,76.6125,6.48,1.5264,1.5264,0,0,0,75.0472,8.11a1.5264,1.5264,0,0,0,1.5653,1.63,1.6635,1.6635,0,0,0,1.3216-.6158"/><path class="a" d="M87.0824,8.636l-4.324-.0128a1.5551,1.5551,0,0,0,1.7322,1.2445A2.5656,2.5656,0,0,0,86.3,9.2647l.59,1.065a3.3544,3.3544,0,0,1-2.5148.8981,3.0369,3.0369,0,0,1-3.3617-3.1307A2.9461,2.9461,0,0,1,84.1313,4.992a2.8558,2.8558,0,0,1,2.9511,3.1436ZM85.4657,7.52a1.3,1.3,0,0,0-1.3472-1.27,1.3844,1.3844,0,0,0-1.3857,1.27Z"/></svg>