<svg xmlns="http://www.w3.org/2000/svg" width="13.5982" height="2.9549" viewBox="0 0 13.5982 2.9549"><defs><style>.a{fill:#595959;}</style></defs><title>crowdfox_inactive</title><path class="a" d="M.0042,0c.01.0089.019.0183.0291.0267A2.0769,2.0769,0,0,1,.3645.3939C.3965.4369.4288.48.46.5233A.0188.0188,0,0,0,.4853.5315L.4864.5309A1.3935,1.3935,0,0,1,1.0206.45a1.36,1.36,0,0,1,.4012.0788A.03.03,0,0,0,1.4624.5165l0-.0008A3.5292,3.5292,0,0,1,1.7454.1586C1.7979.1039,1.8545.053,1.9092,0L1.915.0048V1.0479a1.199,1.199,0,0,0-.8528.9474H.8554A1.1869,1.1869,0,0,0,0,1.0512V.019Z"/><path class="a" d="M4.6415,2.8106l-.0247-.0188-.0091-.0071-.097-.0932-.0076-.0089-.0268-.0333L4.47,2.64a.8247.8247,0,0,1-.1071-.2115l-.0037-.0129A.814.814,0,0,1,4.33,2.1885c.0016-.0511.0086-.1021.0132-.1531l.0019-.0135.03-.1057.0055-.0128.0027-.0085.0058-.0122.0324-.0668.0113-.0187.0013-.0029.029-.0437.0356-.0459.0075-.0089.0307-.0335.016-.016.0757-.0652.0092-.0067a.9.9,0,0,1,.1858-.0995l.0344-.0114.05-.0138.0134-.0024L4.98,1.4366l.0135-.0011h.2147l.0135.0011.0162.003.0135.0015.1184.0305.0126.0046.06.0248.0339.017.0156.0086.0185.0113.003.0014.0436.0291.046.0355.0089.0075.0206.0185.0216.02.0079.0079.02.0216L5.7008,1.7l.0073.009.01.0121.0138.0188.0012.0016.0045.0057.031.0461.0084.0141.0058.0111.0118.0212L5.8,1.8523l.0068.0128c.0186.0625.042.124.0547.1877A.7655.7655,0,0,1,5.85,2.39l-.0019.0125-.0035.0132-.0381.1016-.02.0383-.0184.0329-.0117.0179-.011.0162-.0054.01-.0356.046-.0076.0089L5.67,2.7164l-.0244.0244-.0714.061-.0092.0065L5.502,2.85l-.0187.0111-.0794.0371-.0124.0052-.1439.039-.1017.0125H5.0527l-.017-.0035a.8787.8787,0,0,1-.2542-.06l-.0121-.006L4.6981,2.848l-.0139-.0085L4.6508,2.817Zm.1009-.648a.4457.4457,0,0,0,.0524.2315.3435.3435,0,0,0,.554.0819.4159.4159,0,0,0,.01-.5619A.3389.3389,0,0,0,4.85,1.91a.3876.3876,0,0,0-.1076.2525Z"/><path class="a" d="M10.8687,2.7544l-.05-.05-.0116-.0132-.0142-.0164-.0072-.009a.8269.8269,0,0,1-.1149-.2032l-.0134-.0394-.0045-.0154-.0072-.03-.0149-.0841L10.63,2.28a.8975.8975,0,0,1,.0278-.321l.0039-.0129.0169-.0467.0057-.0123.0068-.0169.0213-.0429.0086-.0156.0113-.0185.0368-.0543.0066-.0092.0273-.0332.0114-.0133.0589-.0589.0088-.0077.0376-.031.0092-.0066.02-.015.0308-.0206.0244-.0141.0192-.0111.0409-.02.0121-.0061a1.81,1.81,0,0,1,.1867-.051.7938.7938,0,0,1,.5091.0774l.0077.0029.0083.0046.1013.0689.009.0073.0164.0141.0088.0077.0589.0588.0077.0088.0773.1055.0084.0142.01.02.0114.0213.0287.0682.0133.0394.0045.0155.0071.03a.9645.9645,0,0,1,.02.2155v.0127l-.0186.1414-.0037.0154-.0129.0452L12.13,2.45a.79.79,0,0,1-.1409.2412l-.0154.0175-.042.0419-.0131.0117-.0375.0313L11.8723,2.8l-.0078.006-.0093.0064-.0757.0481-.0514.0256-.0506.02-.0126.0046-.0082.002-.0174.0062-.0165.005-.0132.0033-.0419.01-.0135.0019-.0755.0109-.0339.0041h-.0975l-.03-.0041c-.0072.0007-.0166-.01-.0212.0041H11.288l-.0027-.0083L11.2421,2.94l-.0134-.0019L11.157,2.92l-.0128-.0039-.0127-.0042-.0172-.0068-.0167-.0058-.0123-.0056-.0174-.007-.0256-.0122L11.0337,2.87l-.0168-.0089-.0757-.048-.0092-.0065-.0544-.0441Zm.1707-.5681a.423.423,0,0,0,.0616.2223.3428.3428,0,0,0,.5612.05.4174.4174,0,0,0-.0091-.5481.3376.3376,0,0,0-.4766-.028l-.0041.0037A.4.4,0,0,0,11.0394,2.1863Z"/><path class="a" d="M12.4672,2.0089,12.44,1.9668,12.4291,1.95l-.0268-.0421L12.39,1.89l-.0294-.0459L12.3524,1.83l-.018-.0286-.0113-.0172-.0268-.0421-.0113-.0173-.0268-.0421-.0118-.0179L12.217,1.619l-.0087-.0135-.018-.0286L12.1789,1.56l-.0268-.0421L12.1408,1.5l-.0222-.0386h.0244q.2155,0,.4311,0c.0219,0,.0381.0032.0465.0251l.0076.01.0113.0173.0268.0421.0113.0173.0268.0421.0118.0179.0294.0459.0087.0135.018.0286.02.0308.018.0286.0113.0172.017.0294.0225-.0379.0113-.0172.018-.0286.0088-.0135.0294-.0459.0118-.018.0268-.0421.0113-.0173.0268-.0421.0113-.0173.0268-.0421.0113-.0172c.0107-.0244.03-.0269.0546-.0267.1438.0012.2876,0,.4314.001.0054,0,.0177-.0077.017.008l-.0058.0093-.0269.0421-.0114.0173-.0352.0548-.0114.0173-.0352.0548-.0114.0172-.0264.0414-.02.0307-.0269.0421-.0113.0173-.0352.0548-.0139.0208-.0327.0512-.0114.0172L13.2163,2l-.02.0307-.0265.0414-.02.0307-.0269.0421-.0114.0173a.0159.0159,0,0,0-.0058.0217l.0041.0047.0145.02.02.03.0438.0675.02.0307.0349.0541.02.03.0437.0675.02.0307.0349.0541.02.03.0437.0675.02.0307.0349.0541.02.03.0437.0675.02.0307.0343.05v.0042c-.0479,0-.0958.0009-.1437.0009-.1064,0-.2129,0-.3193,0-.0207,0-.0371-.0022-.0462-.0227l-.0114-.0173-.0327-.0512L13.031,2.827l-.0327-.0512-.0139-.0208L12.9491,2.7l-.0114-.0173-.0353-.0548-.0114-.0173-.0352-.0548-.0169-.0281-.0083.0152-.0217.0337-.0113.0173-.0268.0421-.0113.0173-.0268.0421-.0113.0173-.0268.0421-.0113.0172-.0268.0421-.0113.0172-.0268.0421-.0113.0172-.018.0286L12.58,2.933l-.0194.0052h-.4572l-.016-.005.0052-.0085.0607-.093.0224-.0335.0577-.0888.0229-.0341.0576-.0887.0313-.0469.0582-.0894.0225-.0335.0577-.0888.0287-.0433c.0206-.0308.0415-.0614.0613-.0927a.0209.0209,0,0,0,0-.018c-.0082-.0146-.0182-.0281-.0275-.042l-.0118-.018-.018-.0287-.02-.0308-.018-.0286Z"/><path class="a" d="M1.9082,2.8888l-.14-.08L1.759,2.8022,1.7513,2.796l-.0091-.0069-.012-.01L1.7169,2.768l-.1148-.1266L1.573,2.5978l-.0014-.003L1.56,2.5757l-.032-.067-.0058-.0122L1.52,2.488l-.006-.0128c-.0134-.0588-.0312-.1171-.0389-.1766A1.6329,1.6329,0,0,1,1.47,2.1279V2.1152l.0072-.0544.0016-.0135.0221-.0915.0076-.0229.0092-.0252.0053-.0123.007-.0175.0062-.0121.0155-.0324.011-.0191L1.6,1.7557l.0063-.0093.0189-.0247.0071-.0091.0139-.0164.0076-.0089.0631-.0632.0147-.0127.0317-.026.0092-.0066.02-.015.0308-.0206.0244-.0141.0191-.0111.041-.02L1.92,1.492l.11-.0381.0133-.0029.0248-.006.0135-.002a.9152.9152,0,0,1,.3164,0l.0135.0019.1482.047.0121.0061.0713.0365.014.0086.114.0859.0131.0118.0419.0419.0119.0131.0223.025.0115.0132v.007L2.86,1.7542l-.0171.0192L2.83,1.7881l-.05.0579-.0127.0146-.0222.025-.0076.0088-.0223.025-.0114.0133-.0222.025-.0077.0088-.0222.025L2.64,2.0048l-.0171.0192-.0078.0071c-.0209-.0243-.0412-.0491-.0628-.0728-.0126-.0139-.0272-.0259-.0409-.0388l-.0149-.0122L2.46,1.8815l-.0141-.0083a.3624.3624,0,0,0-.22-.0481.7811.7811,0,0,0-.0942.018l-.0127.0043-.0635.03-.0136.0086-.0074.0048-.0093.0064-.0644.0607-.0071.009h0l-.0175.0254a.3441.3441,0,0,0-.0511.1925.381.381,0,0,0,.0565.2232l.012.0175.0164.02.0386.0384.0331.0253.0135.0087.08.0346.0132.0031a.3874.3874,0,0,0,.208-.0079L2.3833,2.54l.071-.035.0092-.0059L2.549,2.421l.0074-.0089.0307-.0377.0072-.009.0166.01c.024.0235.0476.0475.0713.0713l.0342.0355.1014.1044.0288.03.0173.0284-.0077.0088-.0224.0249-.0117.0132-.0546.0546-.0131.0117-.0713.0572-.0093.0064-.1482.0809-.0124.0053L2.4456,2.93,2.42,2.9359l-.05.01-.0551.0083H2.1618l-.0551-.0086-.0332-.0065L2.06,2.9375l-.0248-.0061L2.022,2.9287l-.102-.034Z"/><path class="a" d="M6.9642,2.3229l-.02-.0639L6.94,2.2461l-.0174-.0549-.0043-.0137-.0151-.05-.0088-.0284-.0072.0289L6.87,2.183l-.0039.0129-.0173.055-.0039.0129-.0173.055-.0039.0129-.0173.055L6.8024,2.4l-.0173.055-.0039.0129-.0173.055L6.76,2.5346,6.743,2.59l-.0039.0129-.0169.054L6.7179,2.67l-.0168.054-.0043.0138-.0173.055-.0039.0128-.0173.055-.0039.0128-.0161.0511-.0046.0124-.2942.001-.011-.005-.0076-.0215-.0264-.076-.0076-.0215-.025-.0722-.0045-.0126-.0264-.076L6.2234,2.632,6.1983,2.56l-.0045-.0127-.0265-.076L6.16,2.45l-.0264-.076L6.13,2.3649,6.1,2.28l-.0045-.0126L6.07,2.1915,6.0623,2.17l-.025-.0722-.0045-.0126-.0265-.076-.0076-.0215-.025-.0722-.0045-.0126-.0274-.08-.0067-.0173L5.9087,1.73,5.9012,1.708l-.025-.0722-.0045-.0126-.0264-.076-.0075-.0215-.02-.0632h.437l.0341.0936.0088.0253.042.123L6.349,1.73l.042.123.009.0251.042.123.0088.0253.0357.11h.0044l.0453-.1528.005-.0167.0131-.0422.0039-.0129L6.5713,1.87l.0038-.0129.0131-.0422L6.592,1.802l.0132-.042.0038-.0129.0132-.0422L6.626,1.692,6.6392,1.65l.0038-.0129.047-.1516.0044-.0141c.0046-.0032.0093-.0091.0139-.0091.1289,0,.2578,0,.3867.0008l.0042.0128.0261.0845.0038.0129.013.0422.0038.0129.0261.0845.0038.0129.013.0422.0038.0129.026.0845.0038.0129.013.0422.0038.0129.026.0845.0038.0129.013.0423.0038.0129.0072.0257.0086.03.01-.03.0315-.0929L7.35,1.9965l.035-.1014.0045-.0126.0336-.0976.0075-.0215.035-.1014L7.47,1.6493l.0336-.0976L7.511,1.53c.007-.0191.0135-.0384.0216-.0571a.02.02,0,0,1,.0142-.011H7.97l.0031.0012-.0179.0578-.0045.0126-.025.0722-.0076.0215-.0264.076L7.8852,1.72l-.0274.08-.0045.0126-.025.0722-.0076.0215-.0265.076L7.79,1.9961l-.025.0722L7.7572,2.09l-.0265.076-.0045.0126-.025.0722-.0076.0215-.0264.076-.0045.0126-.03.0848L7.63,2.4543l-.0264.076-.0075.0215-.0265.076L7.5652,2.64l-.025.0722-.0076.0215-.0265.076-.0045.0126-.025.0722L7.469,2.916l-.01.0222H7.175L7.156,2.933l-.0053-.0162-.02-.0644L7.1267,2.84l-.0174-.0549-.0039-.0128L7.084,2.7045,7.08,2.6912l-.0174-.0549-.0039-.0128-.0214-.0678-.0039-.0129L7.016,2.488l-.0051-.0167-.02-.0639L6.987,2.3945,6.9693,2.34Z"/><path class="a" d="M3.6838,2.7166l-.0227-.0333L3.6517,2.67,3.625,2.632l-.0117-.0174L3.59,2.5815l-.0123-.0176L3.555,2.5306l-.0094-.0135a.026.026,0,0,0-.0294-.0178C3.4782,2.5,3.44,2.5,3.4,2.5v.4372H2.9927V1.4624c.0044,0,.0085-.0007.0126-.0006.2042,0,.4083,0,.6125.0011.0486,0,.0971.007.1456.0107l.0135.0013.1864.0515.0383.02.0544.0365.009.0074.0511.0546.0066.0092.011.0162.0114.0185.02.0414.0055.0123a.725.725,0,0,1,.0354.28l-.0005.0127a.6884.6884,0,0,1-.0434.1821l-.02.0383-.0906.1088-.0123.01h0L4.03,2.38l-.0334.0225-.0145.0084-.0038.0149a.1.1,0,0,0,.0144.02l.0063.0093.0447.0627.0063.0093.018.025.0091.0129.0385.0546.0063.0093.0447.0627.0063.0093.018.025L4.2,2.7388l.0385.0546.0063.0093.0447.0627.0063.0093.0181.025.0091.0129.0149.025-.014.0009H3.8518L3.837,2.9372l-.0091-.013L3.802,2.8867,3.79,2.8692l-.023-.0334-.0094-.0135L3.731,2.7846l-.0117-.0174-.0232-.0331ZM3.4,1.8221v.3057c.0825,0,.1637.0036.2445-.001a.1342.1342,0,0,0,.1433-.1177A.24.24,0,0,0,3.79,1.9563a.1093.1093,0,0,0-.0979-.12l-.0044,0C3.5926,1.8263,3.4966,1.8265,3.4,1.8221Z"/><path class="a" d="M8.7609,2.9223c-.0738.0054-.1476.0144-.2215.0154-.168.0023-.3361.0007-.5042.0007h-.016V1.463l.0141-.0013q.2733,0,.5465,0c.0437,0,.0873.0047.1309.0073l.0127.001.19.0435.0126.0047.0506.02.0514.0256.0548.0336L9.1,1.61l.0078.006.0091.0069.0122.01.0089.0074.0292.0266.0118.0118.0266.0292.0074.0089.01.0122.0068.0092.0149.02.0117.0173L9.27,1.797l.0083.0146.0239.0495.006.0122a1.8723,1.8723,0,0,1,.0472.1854.8846.8846,0,0,1-.0357.4253l-.0032.0121-.0054.0128-.0029.0084L9.3023,2.53l-.0409.08L9.25,2.6281l-.0363.05-.0072.009-.0141.0164-.0118.0131-.0292.0292-.0131.0117-.0164.0141-.0091.0069-.0077.0062-.0092.0066a.7842.7842,0,0,1-.3136.1262L8.7744,2.92Zm-.3361-.3549a1.3453,1.3453,0,0,0,.2925-.0164.29.29,0,0,0,.23-.2306.5338.5338,0,0,0,.0052-.2021.3075.3075,0,0,0-.2182-.2653.9746.9746,0,0,0-.3091-.0254Z"/><path class="a" d="M10.59,1.6532l-.0272.0592-.0108.0213-.023.05-.0124.026-.01.02-.007.0017-.41-.0007H9.9082v.1961l.014.0017H10.39l.0125-.0013.0029.0069-.0291.0592-.0364.0722c-.0357.0719-.072.1435-.1068.2158a.0267.0267,0,0,1-.0288.0175c-.0981-.0006-.1963,0-.2976,0v.5383H9.5008V1.4625h1.1769l-.0046.0163-.011.0218-.0272.0592-.0108.0213-.023.05Z"/></svg>